<svg xmlns="http://www.w3.org/2000/svg" xmlns:xlink="http://www.w3.org/1999/xlink" x="0px" y="0px" width="16" height="16" viewBox="0 0 16 16" version="1.1">
<path
fill-rule="evenodd"
id="r"
d="M2.80456 0.0C1.53169 0.0 0.46231 0.8395 0.11722 1.9974C0.65595 2.6291 1.917 3.6348 4.10868 2.8607C7.12099 1.7967 7.21946 1.0731 9.37026 1.3071C9.58017 1.0151 9.8039 0.7698 10.04032 0.6029C10.70196 0.1359 11.16916 0.3905 11.45037 0.7121C11.67687 0.5235 12.04906 0.231 12.43243 0.0C12.43243 0.0 2.80456 0.0 2.80456 0.0C2.80456 0.0 2.80456 0.0 2.80456 0.0M8.00586 4.1565C7.84838 4.1551 7.51975 4.218 6.90756 4.5707C6.32291 5.0887 4.71324 5.8388 3.58983 7.3761C2.65561 8.6547 0.6318 10.4905 0.0 10.8481C0.0 10.8481 0.0 13.1958 0.0 13.1958C0.0 13.8053 0.19257 14.3683 0.52035 14.8274C0.74197 14.288 1.07908 13.6922 1.57055 13.322C2.65031 12.5087 3.13704 12.5341 3.75811 12.7751C4.52415 13.0724 6.64158 13.0993 7.80801 12.9699C7.81331 12.7432 7.82472 12.5788 7.82472 12.5788C8.51884 11.8426 9.00263 11.6533 9.31288 11.648C9.41697 11.6463 9.50152 11.6652 9.56759 11.692C9.63769 11.4325 9.69719 11.1385 9.7339 10.8124C9.43319 10.0384 9.30012 9.2173 9.30012 9.2173C8.8413 10.3077 8.68011 11.1204 8.68011 11.1204C8.44154 10.4669 8.48684 9.7137 8.52662 9.367C8.52662 9.367 8.03506 8.8767 8.03506 8.8767C8.03506 8.8767 8.11451 8.2391 8.11451 8.2391C8.00137 7.4964 8.01913 6.7829 8.04368 6.377C7.99896 6.3933 7.95905 6.4025 7.92287 6.4086C7.50219 6.4787 7.64242 5.8757 7.81069 5.0764C7.85267 4.877 7.93828 4.551 8.06321 4.1604C8.04737 4.1583 8.02836 4.1567 8.00586 4.1565C8.00586 4.1565 8.00586 4.1565 8.00586 4.1565M11.18032 6.515C11.09331 6.5159 11.00225 6.5201 10.90696 6.528C10.90696 6.528 10.54514 6.5705 10.44698 6.518C10.44698 6.518 10.57608 6.6381 10.85859 6.6324C10.3529 7.6834 10.61941 8.1146 10.61941 8.1146C10.58585 7.1328 11.21659 7.0483 11.35914 7.0621C11.235 7.2101 11.12397 7.6103 11.10413 7.9867C11.066 8.7101 11.76774 8.609 11.9888 8.5101C12.20598 8.4129 12.54484 8.2304 12.58425 7.379C12.81473 7.4825 13.04872 7.8568 13.04872 7.8568C13.04872 7.8568 12.94965 6.4965 11.18032 6.515C11.18032 6.515 11.18032 6.515 11.18032 6.515M1.57573 7.7361C0.71803 8.0557 0.18167 8.127 0.0 8.1429C0.0 8.1429 0.0 9.8096 0.0 9.8096C0.26935 9.6733 1.6355 8.5429 1.57573 7.7361C1.57573 7.7361 1.57573 7.7361 1.57573 7.7361M14.05083 10.8819C13.87555 11.471 13.48992 11.5621 13.48992 11.5621C13.9667 11.7094 14.09991 11.499 14.14899 11.3939C14.19807 11.2887 14.05083 10.8819 14.05083 10.8819C14.05083 10.8819 14.05083 10.8819 14.05083 10.8819M16.0 11.826C15.53318 12.3666 14.74715 13.2132 14.30324 13.336C13.86892 13.4562 13.39197 13.5215 13.119 13.5394C13.24082 13.6817 13.53787 14.0936 13.65064 14.5111C13.87676 14.7663 14.30387 15.2545 14.59348 15.63C15.43531 15.147 16.0 14.2398 16.0 13.1958C16.0 13.1958 16.0 11.826 16.0 11.826C16.0 11.826 16.0 11.826 16.0 11.826"
/>
</svg>
